<?xml version="1.0" encoding="UTF-8" standalone="no"?>
<svg
   xmlns:dc="http://purl.org/dc/elements/1.1/"
   xmlns:cc="http://creativecommons.org/ns#"
   xmlns:rdf="http://www.w3.org/1999/02/22-rdf-syntax-ns#"
   xmlns:svg="http://www.w3.org/2000/svg"
   xmlns="http://www.w3.org/2000/svg"
   xmlns:sodipodi="http://sodipodi.sourceforge.net/DTD/sodipodi-0.dtd"
   xmlns:inkscape="http://www.inkscape.org/namespaces/inkscape"
   enable-background="new 0 0 24 24"
   height="512"
   viewBox="0 0 24 24"
   width="512"
   version="1.1"
   id="svg4"
   sodipodi:docname="github.svg"
   inkscape:version="1.0.1 (0767f8302a, 2020-10-17)">
  <metadata
     id="metadata10">
    <rdf:RDF>
      <cc:Work
         rdf:about="">
        <dc:format>image/svg+xml</dc:format>
        <dc:type
           rdf:resource="http://purl.org/dc/dcmitype/StillImage" />
      </cc:Work>
    </rdf:RDF>
  </metadata>
  <defs
     id="defs8" />
  <sodipodi:namedview
     pagecolor="#ffffff"
     bordercolor="#666666"
     borderopacity="1"
     objecttolerance="10"
     gridtolerance="10"
     guidetolerance="10"
     inkscape:pageopacity="0"
     inkscape:pageshadow="2"
     inkscape:window-width="1366"
     inkscape:window-height="713"
     id="namedview6"
     showgrid="false"
     inkscape:zoom="0.80654367"
     inkscape:cx="137.16072"
     inkscape:cy="277.91414"
     inkscape:window-x="0"
     inkscape:window-y="27"
     inkscape:window-maximized="1"
     inkscape:current-layer="g834"
     inkscape:document-rotation="0" />
  <g
     id="g834"
     transform="matrix(0.9450037,0,0,0.92581443,0.64732192,0.60348317)">
    <ellipse
       style="fill:#ffffff;fill-opacity:1;fill-rule:evenodd;stroke-width:0.0689015"
       id="path830"
       cx="12.019259"
       cy="12.369122"
       rx="12.664236"
       ry="12.904472" />
    <path
       d="m 12.074499,0.03792165 c -6.6427435,0 -12.02306536,5.50738295 -12.02306536,12.29982235 0,5.43541 3.44460816,10.044715 8.22077106,11.66981 0.6011532,0.115782 0.821576,-0.264937 0.821576,-0.591417 0,-0.292058 -0.010019,-1.066012 -0.015029,-2.091346 C 5.7343355,22.06641 5.0289825,19.674663 5.0289825,19.674663 4.4819329,18.255051 3.6914164,17.875376 3.6914164,17.875376 c -1.0890893,-0.76248 0.084162,-0.746834 0.084162,-0.746834 1.2073161,0.08554 1.8415328,1.267323 1.8415328,1.267323 1.0720566,1.880646 2.8143992,1.337209 3.5017178,1.023247 0.1082075,-0.795859 0.4178013,-1.337211 0.7614613,-1.644913 -2.6701232,-0.307705 -5.4765071,-1.365373 -5.4765071,-6.07794 0,-1.342426 0.465894,-2.4397292 1.2373739,-3.3002578 -0.1352595,-0.3108334 -0.5410379,-1.5614683 0.105202,-3.2554058 0,0 1.0069317,-0.3296085 3.3063428,1.2610655 0.9618461,-0.273283 1.9838051,-0.4088814 3.0057661,-0.4151399 1.02196,0.00625 2.043922,0.1418569 3.005766,0.4151399 2.284383,-1.590674 3.291315,-1.2610655 3.291315,-1.2610655 0.64624,1.6939375 0.24046,2.9445724 0.120231,3.2554058 0.76647,0.8605286 1.232364,1.9578318 1.232364,3.3002578 0,4.725085 -2.810392,5.76502 -5.485523,6.067507 0.420806,0.369247 0.811557,1.123381 0.811557,2.275969 0,1.645956 -0.01503,2.968563 -0.01503,3.368057 0,0.322307 0.210403,0.707198 0.826585,0.584117 4.810228,-1.614665 8.251831,-6.227098 8.251831,-11.654165 0,-6.7924394 -5.383328,-12.29982235 -12.023067,-12.29982235 z"
       fill="#212121"
       id="path2"
       style="stroke-width:1.0223" />
  </g>
</svg>
