<?xml version="1.0" encoding="UTF-8" standalone="no"?>
<svg
   xmlns:dc="http://purl.org/dc/elements/1.1/"
   xmlns:cc="http://creativecommons.org/ns#"
   xmlns:rdf="http://www.w3.org/1999/02/22-rdf-syntax-ns#"
   xmlns:svg="http://www.w3.org/2000/svg"
   xmlns="http://www.w3.org/2000/svg"
   xmlns:sodipodi="http://sodipodi.sourceforge.net/DTD/sodipodi-0.dtd"
   xmlns:inkscape="http://www.inkscape.org/namespaces/inkscape"
   enable-background="new 0 0 24 24"
   height="512"
   viewBox="0 0 24 24"
   width="512"
   version="1.1"
   id="svg4"
   sodipodi:docname="github.svg"
   inkscape:version="1.0.1 (0767f8302a, 2020-10-17)">
  <metadata
     id="metadata10">
    <rdf:RDF>
      <cc:Work
         rdf:about="">
        <dc:format>image/svg+xml</dc:format>
        <dc:type
           rdf:resource="http://purl.org/dc/dcmitype/StillImage" />
      </cc:Work>
    </rdf:RDF>
  </metadata>
  <defs
     id="defs8" />
  <sodipodi:namedview
     pagecolor="#ffffff"
     bordercolor="#666666"
     borderopacity="1"
     objecttolerance="10"
     gridtolerance="10"
     guidetolerance="10"
     inkscape:pageopacity="0"
     inkscape:pageshadow="2"
     inkscape:window-width="1366"
     inkscape:window-height="713"
     id="namedview6"
     showgrid="false"
     inkscape:zoom="0.80654367"
     inkscape:cx="156.37853"
     inkscape:cy="327.50848"
     inkscape:window-x="0"
     inkscape:window-y="27"
     inkscape:window-maximized="1"
     inkscape:current-layer="svg4" />
  <path
     d="m 12,-0.22753126 c -6.8022876,0 -12.31183284,5.61402676 -12.31183284,12.53799326 0,5.540661 3.52734014,10.239219 8.41821574,11.895783 0.6155916,0.118022 0.8413085,-0.270069 0.8413085,-0.60287 0,-0.297714 -0.01026,-1.086655 -0.01539,-2.131842 C 5.5075601,22.227512 4.785266,19.789452 4.785266,19.789452 4.2250776,18.342351 3.4155746,17.955323 3.4155746,17.955323 c -1.1152469,-0.777244 0.086183,-0.761295 0.086183,-0.761295 1.2363132,0.08719 1.8857624,1.291864 1.8857624,1.291864 1.0978051,1.917062 2.8819948,1.363102 3.5858213,1.04306 0.1108065,-0.811269 0.4278362,-1.363103 0.7797494,-1.676765 -2.7342529,-0.313663 -5.6080399,-1.391811 -5.6080399,-6.195631 0,-1.36842 0.4770836,-2.486972 1.2670928,-3.3641637 C 5.2736353,7.97554 4.858111,6.7006881 5.519872,4.9739496 c 0,0 1.031116,-0.335991 3.385754,1.2854845 0.9849466,-0.2785748 2.031452,-0.4167989 3.077958,-0.4231786 1.046506,0.00638 2.093012,0.1446038 3.077958,0.4231786 2.339249,-1.6214755 3.370365,-1.2854845 3.370365,-1.2854845 0.661761,1.7267385 0.246236,3.0015904 0.123118,3.3184427 0.784879,0.8771917 1.261963,1.9957437 1.261963,3.3641637 0,4.81658 -2.877891,5.876652 -5.617274,6.184998 0.430914,0.376395 0.831049,1.145134 0.831049,2.320039 0,1.677829 -0.01539,3.026046 -0.01539,3.433276 0,0.328547 0.215457,0.720892 0.846439,0.595427 4.925759,-1.645931 8.450021,-6.347679 8.450021,-11.879834 C 24.311833,5.3864955 18.79921,-0.22753126 12,-0.22753126 Z"
     fill="#212121"
     id="path2"
     style="stroke-width:1.04447" />
</svg>
